# xmcd
#
# Track frame offsets:
# 150
# 20100
# 38550
# 60075
# 79275
# 98250
# 122325
# 136575
# 154650
# 166875
# 177962
#
# Disc length: 2639 seconds
#
#
# Revision: 3
# Processed by: cddbd v1.5.2PL0 Copyright (c) Steve Scherf et al.
# Submitted via: FreeRIP 2.96 
#
DISCID=710a4d0b
DTITLE=MILVA - VOLPE D'AMOUR
DYEAR=1992
DGENRE=Acoustic
TTITLE0=Mamma
TTITLE1=La Lunga Notte
TTITLE2=Stranieri
TTITLE3=Chi Sei
TTITLE4=Anna Non Piangere
TTITLE5=Il Canto di un'Eneide Diversa
TTITLE6=Profumo d'Amore
TTITLE7=Guarda Che Notte
TTITLE8=Volpe d'Amore
TTITLE9=La Lettera
TTITLE10=Thalassa
EXTD=
EXTT0=
EXTT1=
EXTT2=
EXTT3=
EXTT4=
EXTT5=
EXTT6=
EXTT7=
EXTT8=
EXTT9=
EXTT10=
PLAYORDER=
